<?xml version="1.0" encoding="utf-8"?>
<!-- Generator: Adobe Illustrator 26.4.1, SVG Export Plug-In . SVG Version: 6.00 Build 0)  -->
<svg version="1.1" id="Layer_1" xmlns="http://www.w3.org/2000/svg" xmlns:xlink="http://www.w3.org/1999/xlink" x="0px" y="0px"
	 width="16px" height="10.6px" viewBox="0 0 16 10.6" style="enable-background:new 0 0 16 10.6;" xml:space="preserve">
<g>
	<path d="M1.4,4.8C1,4.6,0.7,4.3,0.5,3.9C0.3,3.5,0.2,3.1,0.2,2.6c0-0.5,0.1-0.9,0.3-1.3C0.7,1,1,0.7,1.4,0.5
		c0.4-0.2,0.8-0.3,1.3-0.3s0.9,0.1,1.3,0.3C4.3,0.7,4.6,1,4.8,1.4C5,1.7,5.1,2.2,5.1,2.6c0,0.5-0.1,0.9-0.3,1.3
		C4.6,4.3,4.3,4.6,3.9,4.8C3.5,5,3.1,5.1,2.6,5.1S1.8,5,1.4,4.8z M1.7,3.6C2,3.8,2.3,3.9,2.6,3.9s0.7-0.1,0.9-0.4C3.8,3.3,4,3,4,2.6
		c0-0.4-0.1-0.7-0.4-0.9C3.3,1.4,3,1.3,2.6,1.3S2,1.4,1.7,1.7C1.5,1.9,1.3,2.3,1.3,2.6C1.3,3,1.5,3.3,1.7,3.6z"/>
	<path d="M8.9,10.3C8.7,10.2,8.6,10,8.6,9.8V1.3c0-0.3,0.1-0.6,0.2-0.7c0.2-0.2,0.4-0.3,0.7-0.3h5.6c0.2,0,0.3,0.1,0.5,0.2
		c0.1,0.1,0.2,0.3,0.2,0.5c0,0.2-0.1,0.4-0.2,0.5c-0.1,0.1-0.3,0.2-0.5,0.2h-5.1v2.7h4.7c0.2,0,0.4,0.1,0.5,0.2s0.2,0.3,0.2,0.5
		c0,0.2-0.1,0.4-0.2,0.5S15,5.7,14.8,5.7h-4.7v4c0,0.2-0.1,0.4-0.2,0.5c-0.1,0.1-0.3,0.2-0.5,0.2C9.2,10.5,9,10.4,8.9,10.3z"/>
</g>
</svg>
