<?xml version="1.0" encoding="iso-8859-1"?>
<!-- Generator: Adobe Illustrator 26.4.1, SVG Export Plug-In . SVG Version: 6.00 Build 0)  -->
<svg version="1.1" id="Layer_1" xmlns="http://www.w3.org/2000/svg" xmlns:xlink="http://www.w3.org/1999/xlink" x="0px" y="0px"
	 width="5.25px" height="5.25px" viewBox="0 0 5.25 5.25" enable-background="new 0 0 5.25 5.25" xml:space="preserve">
<g>
	<path d="M1.353,4.785c-0.379-0.214-0.678-0.51-0.896-0.889C0.239,3.519,0.129,3.095,0.129,2.625s0.109-0.894,0.328-1.272
		c0.218-0.378,0.517-0.674,0.896-0.888c0.379-0.213,0.803-0.32,1.272-0.32c0.469,0,0.893,0.107,1.271,0.32
		c0.379,0.214,0.677,0.51,0.896,0.888c0.219,0.379,0.328,0.803,0.328,1.272S5.011,3.519,4.792,3.897
		C4.574,4.276,4.276,4.572,3.897,4.785C3.518,4.998,3.094,5.105,2.625,5.105C2.156,5.105,1.732,4.998,1.353,4.785z M1.689,3.561
		C1.94,3.812,2.251,3.937,2.625,3.937c0.373,0,0.685-0.125,0.936-0.376c0.251-0.25,0.376-0.562,0.376-0.936S3.812,1.94,3.561,1.689
		C3.31,1.439,2.999,1.313,2.625,1.313c-0.374,0-0.686,0.126-0.937,0.376C1.438,1.94,1.313,2.252,1.313,2.625
		S1.438,3.311,1.689,3.561z"/>
</g>
<g>
</g>
<g>
</g>
<g>
</g>
<g>
</g>
<g>
</g>
<g>
</g>
<g>
</g>
<g>
</g>
<g>
</g>
<g>
</g>
<g>
</g>
</svg>
