<?xml version="1.0" encoding="iso-8859-1"?>
<!-- Generator: Adobe Illustrator 26.4.1, SVG Export Plug-In . SVG Version: 6.00 Build 0)  -->
<svg version="1.1" id="Layer_1" xmlns="http://www.w3.org/2000/svg" xmlns:xlink="http://www.w3.org/1999/xlink" x="0px" y="0px"
	 width="7.5px" height="7.5px" viewBox="0 0 7.5 7.5" enable-background="new 0 0 7.5 7.5" xml:space="preserve">
<g>
	<path d="M3.294,7.213C3.171,7.091,3.11,6.939,3.11,6.757V4.39H0.79c-0.192,0-0.347-0.059-0.464-0.177
		C0.208,4.096,0.15,3.948,0.15,3.766s0.059-0.331,0.176-0.448C0.443,3.201,0.598,3.142,0.79,3.142h2.32V0.774
		c0-0.203,0.062-0.365,0.184-0.488C3.417,0.164,3.568,0.102,3.75,0.102c0.181,0,0.333,0.062,0.456,0.184
		C4.329,0.409,4.39,0.571,4.39,0.774v2.368h2.319c0.192,0,0.347,0.059,0.465,0.176C7.292,3.435,7.35,3.584,7.35,3.766
		s-0.059,0.33-0.176,0.447C7.056,4.332,6.902,4.39,6.709,4.39H4.39v2.367c0,0.182-0.062,0.334-0.184,0.456
		C4.083,7.336,3.931,7.398,3.75,7.398C3.568,7.398,3.417,7.336,3.294,7.213z"/>
</g>
<g>
</g>
<g>
</g>
<g>
</g>
<g>
</g>
<g>
</g>
<g>
</g>
<g>
</g>
<g>
</g>
<g>
</g>
<g>
</g>
<g>
</g>
</svg>
